<svg xmlns="http://www.w3.org/2000/svg" viewBox="0 0 120.3 200">
  <path d="M100.3 0h-80C9.3 0 0 9 0 20v80c0 11 9.3 20 20.3 20H80v40H20.3c-11 0-20 9-20 20s9 20 20 20h80c11 0 19.7-9 19.7-20v-80c0-11-8.7-20-19.7-20H40V40h60.3c11 0 20-9 20-20s-9-20-20-20zm-80 115a15 15 0 1 1 0-30 15 15 0 0 1 0 30zm0-80a15 15 0 1 1 0-30 15 15 0 0 1 0 30zm0 160a15 15 0 1 1 0-30 15 15 0 0 1 0 30zm80-110a15 15 0 1 1 0 30 15 15 0 0 1 0-30zm0 80a15 15 0 1 1 0 30 15 15 0 0 1 0-30zm0-130a15 15 0 1 1 0-30 15 15 0 0 1 0 30z" fill="#fff"/>
</svg>
