<svg xmlns="http://www.w3.org/2000/svg" id="Path" viewBox="0 0 244.4 35.9">
  <style>
    .s0{fill:#558BBE;} .s1{fill:#84BB54;} .s2{fill:#E64849;} .s3{fill:#E5E5E5;} .s4{fill:#E74849;}
  </style>
  <path d="M226.5.1c2.4 0 4.8.5 6.9 1.4 2.1.9 4 2.2 5.7 3.8 1.7 1.7 3 3.6 3.8 5.7 1 2.2 1.4 4.5 1.4 6.9 0 2.5-.5 4.8-1.4 7-.9 2.1-2.1 4-3.8 5.7-1.6 1.6-3.5 3-5.7 3.8-2.2 1-4.5 1.4-6.9 1.4h-7.2v-.1h-2.9V.1h10.1zm0 28.6c5.9 0 10.7-4.9 10.7-10.8s-4.8-10.7-10.7-10.7h-3v21.5h3z" class="s0"/>
  <path d="M209.7 7.2H193v6.6h13.8V21H193v7.8h16.6V36h-23.7V.1h23.9v7.1z" class="s1"/>
  <path d="M166.9 28.7h13.3v7.1h-20.5V.1h7.2v28.6z" class="s2"/>
  <path d="M135.4 19.5l-2.8 2.8v13.5h-7.2V.1h7.2v11.5L143.1.1h9.7l-12.5 14 12.8 21.8h-8.5l-9.2-16.4z" class="s3"/>
  <path d="M112.5 35.9l-6.7-14.4h-3.6v14.3H95V0h13.5c5.9 0 10.7 4.9 10.7 10.8 0 4.3-2.6 8.1-6.3 9.8l7.1 15.3h-7.5zM102.3 7.2v7.2h6.3c2 0 3.6-1.6 3.6-3.6s-1.6-3.6-3.6-3.6h-6.3z" class="s3"/>
  <path d="M81.6 35.9l-3.1-6.8H57.1l-3.4 6.8" class="s0"/>
  <path d="M75.5 7.6l-3.9 7.5 9.8 20.8h7.5" class="s1"/>
  <path d="M71.9 0L57.1 29.1h7.6L75.6 7.7" class="s4"/>
  <path d="M43 .1C48.9.1 53.7 5 53.7 10.9S48.9 21.6 43 21.6h-4.4v14.3h-7.2V.1H43zm0 14.3c1.9 0 3.6-1.6 3.6-3.6S45 7.2 43 7.2h-4.4v7.2H43z" class="s3"/>
  <path d="M12 20.5c-1.1-.3-3.3-.8-5.2-2.2-2.8-1.8-4.3-4.5-4.4-7.8-.2-2.7.7-5.1 2.4-7C7.4.8 11.1.1 12.8.1c5 0 7.9 1.8 10.4 3.5l1.1.7-3.6 5.9-1.2-.8C17.3 7.9 15.9 7 12.9 7c-.4 0-2.2.3-3.1 1.3-.3.3-.6.8-.6 2 0 1.8 1.3 2.8 4.4 3.6.4.1.7.2 1 .3 3.3 1.1 5.9 2.7 7.7 4.6 1.8 2 2.7 4.3 2.7 6.8 0 2.4-1 4.9-2.8 6.9-2 2.3-4.8 3.6-7.9 3.6-1.5 0-3.6-.1-6.1-.8-3.1-1-5.9-2.7-8.2-5.2l5-4.7C8.7 29 12.8 29 14.3 29c2.9 0 3.8-2.6 3.8-3.5 0-1.9-2.1-3.6-5.7-4.8h-.1l-.3-.2z" class="s3"/>
</svg>
