<?xml version="1.0" standalone="no"?>
<!DOCTYPE svg PUBLIC "-//W3C//DTD SVG 20010904//EN"
 "http://www.w3.org/TR/2001/REC-SVG-20010904/DTD/svg10.dtd">
<svg version="1.0" xmlns="http://www.w3.org/2000/svg"
 width="688.000000pt" height="688.000000pt" viewBox="0 0 688.000000 688.000000"
 preserveAspectRatio="xMidYMid meet">
<metadata>
Created by potrace 1.11, written by Peter Selinger 2001-2013
</metadata>
<g transform="translate(0.000000,688.000000) scale(0.100000,-0.100000)"
fill="#000000" stroke="none">
<path d="M3346 6290 c-14 -30 -102 -203 -195 -385 -92 -181 -239 -472 -327
-645 -87 -173 -161 -317 -164 -320 -3 -3 -32 -60 -65 -127 -33 -68 -63 -123
-67 -123 -5 0 -7 -4 -6 -8 4 -10 -54 -126 -64 -130 -5 -2 -8 -8 -8 -14 0 -16
-33 -82 -44 -90 -6 -4 -7 -8 -2 -8 5 0 4 -6 -2 -12 -5 -7 -49 -92 -98 -188
-48 -96 -97 -191 -109 -210 -12 -19 -22 -37 -21 -40 0 -3 -24 -52 -54 -110
-29 -58 -97 -193 -151 -300 -54 -107 -102 -200 -106 -205 -4 -6 -72 -139 -151
-295 -79 -157 -232 -460 -342 -675 -109 -214 -241 -473 -292 -575 -52 -102
-179 -351 -283 -555 -104 -203 -196 -385 -205 -402 -12 -26 -16 -65 -15 -185
l0 -153 2865 0 2865 0 1 150 c0 121 -3 158 -17 190 -19 45 -88 192 -186 395
-36 74 -77 160 -90 190 -14 30 -52 111 -85 180 -33 69 -73 152 -88 185 -16 33
-50 105 -76 160 -26 55 -68 145 -94 200 -104 220 -144 303 -178 375 -20 41
-36 77 -37 80 -1 3 -29 64 -64 135 -60 124 -93 194 -96 205 -1 3 -25 55 -54
115 -62 128 -128 267 -181 380 -21 44 -60 127 -87 185 -66 137 -122 256 -168
355 -20 44 -41 88 -46 98 -5 9 -13 25 -18 35 -5 9 -26 53 -46 97 -51 109 -105
223 -186 394 -38 79 -69 149 -69 156 0 7 -7 18 -15 25 -8 7 -15 16 -15 20 0 8
-36 86 -152 330 -31 63 -67 140 -80 170 -14 30 -40 87 -58 125 -18 39 -43 93
-56 120 -12 28 -40 89 -62 135 -21 47 -52 114 -68 150 -15 36 -32 67 -36 70
-4 3 -9 15 -11 25 -2 11 -20 54 -39 95 -20 41 -54 116 -77 165 -23 50 -45 97
-50 105 -7 12 -38 15 -179 15 l-170 1 -26 -56z m210 -2337 c25 -54 59 -125 74
-158 16 -33 49 -105 75 -160 26 -55 63 -134 82 -175 19 -41 51 -109 70 -150
19 -41 48 -102 63 -135 16 -33 52 -109 80 -170 29 -60 65 -138 81 -173 16 -35
50 -107 75 -160 25 -53 53 -113 62 -132 8 -19 46 -100 84 -179 37 -79 68 -145
68 -146 0 -2 29 -63 63 -136 35 -74 77 -163 92 -199 16 -36 35 -73 43 -82 8
-10 12 -18 9 -18 -4 0 2 -17 13 -37 l20 -38 -1147 -3 c-630 -1 -1148 0 -1150
2 -5 5 70 149 82 158 6 4 6 8 2 8 -5 0 0 15 11 33 11 17 82 156 158 307 76
151 141 277 144 280 3 3 14 25 25 50 10 25 26 56 35 70 8 14 65 124 125 245
61 121 113 222 118 223 4 2 7 11 7 21 0 9 4 21 9 26 5 6 77 145 161 310 83
165 156 305 162 312 5 7 11 18 12 26 1 8 8 25 17 38 8 13 39 72 68 132 29 59
55 107 57 107 3 0 25 -44 50 -97z"/>
</g>
</svg>
