<?xml version="1.0" encoding="utf-8"?>
<svg version="1.1" id="Path" xmlns="http://www.w3.org/2000/svg" xmlns:xlink="http://www.w3.org/1999/xlink" x="0px" y="0px"
	 viewBox="0 0 244.366 35.87" style="enable-background:new 0 0 244.366 35.87;" xml:space="preserve">
<style type="text/css">
	.st0{fill:#558BBE;}
	.st1{fill:#84BB54;}
	.st2{fill:#E64849;}
	.st3{fill:#E5E5E5;}
	.st4{fill:#E74849;}
</style>
<path id="XMLID_23_" class="st0" d="M226.483,0.051c2.401,0,4.751,0.459,6.948,1.38c2.146,0.92,4.036,2.197,5.672,3.832
	c1.686,1.686,2.963,3.576,3.832,5.723c0.972,2.197,1.431,4.547,1.431,6.949c0,2.453-0.459,4.803-1.431,7
	c-0.869,2.147-2.146,4.037-3.832,5.672c-1.635,1.635-3.526,2.963-5.672,3.832c-2.197,0.97-4.547,1.43-6.948,1.43h-7.205v-0.051
	h-2.912V0.051H226.483z M226.483,28.717c5.927,0,10.729-4.855,10.729-10.782c0-5.928-4.803-10.731-10.729-10.731h-2.963v21.513
	H226.483z"/>
<path id="XMLID_21_" class="st1" d="M209.719,7.205h-16.708v6.592h13.796v7.153h-13.796v7.768h16.555v7.153h-23.709V0.051h23.862
	V7.205z"/>
<path id="XMLID_19_" class="st2" d="M166.898,28.717h13.336v7.102h-20.49V0.051h7.154V28.717z"/>
<path id="XMLID_17_" class="st3" d="M135.418,19.468l-2.759,2.811v13.54h-7.153V0.051h7.153v11.548l10.475-11.548h9.657l-12.519,14
	l12.825,21.767h-8.533L135.418,19.468z"/>
<path id="XMLID_14_" class="st3" d="M112.524,35.87l-6.693-14.359h-3.577v14.307H95.1V0h13.49c5.928,0,10.731,4.855,10.731,10.782
	c0,4.343-2.555,8.074-6.285,9.76l7.103,15.329H112.524z M102.254,7.154v7.205h6.336c1.993,0,3.577-1.584,3.577-3.577
	s-1.584-3.628-3.577-3.628H102.254z"/>
<polygon id="XMLID_29_" class="st0" points="79.505,28.717 64.897,28.717 64.917,28.679 56.916,28.68 54.218,33.98 54.218,35.87
	82.841,35.87 "/>
<polygon id="XMLID_28_" class="st1" points="76.392,5.989 72.252,13.887 82.541,35.87 89.629,35.87 89.629,33.98 "/>
<polygon id="XMLID_27_" class="st4" points="71.489,0.051 56.897,28.717 64.897,28.717 76.437,6.084 73.584,0.051 "/>
<path id="XMLID_8_" class="st3" d="M43.026,0.051c5.928,0,10.731,4.854,10.731,10.782c0,5.927-4.803,10.73-10.731,10.73h-4.445
	V35.87h-7.154V0.051H43.026z M43.026,14.409c1.942,0,3.577-1.584,3.577-3.576c0-1.993-1.635-3.628-3.577-3.628h-4.445v7.205H43.026z
	"/>
<path id="XMLID_6_" class="st3" d="M11.997,20.516c-1.135-0.296-3.258-0.839-5.233-2.172c-2.765-1.827-4.295-4.493-4.443-7.8
	C2.173,7.78,3.061,5.361,4.838,3.485c2.568-2.666,6.27-3.406,8.047-3.406c5.036,0,7.85,1.827,10.367,3.455l1.136,0.741l-3.604,5.875
	l-1.234-0.79c-2.221-1.432-3.654-2.37-6.665-2.37c-0.444,0-2.172,0.345-3.061,1.283c-0.296,0.296-0.642,0.84-0.592,1.975
	c0.05,1.778,1.283,2.765,4.443,3.555c0.395,0.099,0.691,0.198,0.988,0.296c3.308,1.135,5.875,2.666,7.652,4.591
	c1.777,1.975,2.715,4.295,2.715,6.764c0,2.419-1.037,4.936-2.765,6.862c-2.024,2.271-4.838,3.555-7.949,3.555
	c-1.53,0-3.603-0.099-6.072-0.84C5.134,34.044,2.37,32.316,0,29.798l5.036-4.739c3.653,3.9,7.751,3.9,9.281,3.9
	c2.864,0,3.802-2.616,3.802-3.505c0-1.876-2.123-3.604-5.727-4.838l-0.148-0.05L11.997,20.516z"/>
</svg>